<?xml version="1.0" encoding="UTF-8" ?>
<!DOCTYPE svg PUBLIC "-//W3C//DTD SVG 1.1//EN" "http://www.w3.org/Graphics/SVG/1.1/DTD/svg11.dtd">
<svg width="980pt" height="980pt" viewBox="0 0 980 980" version="1.1" xmlns="http://www.w3.org/2000/svg">
<g id="#d7d7d7ff">
<path fill="#d7d7d7" opacity="1.00" d=" M 517.42 219.84 C 519.01 218.52 521.11 219.04 523.00 218.95 C 528.01 219.08 533.02 218.81 538.03 219.05 C 538.42 219.25 539.20 219.66 539.58 219.86 C 541.27 220.00 543.10 219.69 544.56 220.79 C 545.90 220.94 547.28 221.00 548.52 221.66 C 549.53 221.96 550.53 222.30 551.54 222.67 C 552.51 222.96 553.49 223.28 554.46 223.62 C 554.97 223.94 556.00 224.58 556.51 224.91 C 557.02 224.95 558.04 225.03 558.54 225.07 C 559.47 225.90 560.43 226.72 561.53 227.34 C 562.90 227.95 564.24 228.62 565.60 229.28 C 566.13 229.52 567.18 230.00 567.71 230.24 C 568.16 232.72 570.65 233.47 572.71 234.20 C 573.24 235.84 574.50 237.08 575.42 238.51 C 576.61 240.24 575.70 242.09 574.64 243.60 C 574.02 244.81 573.97 246.17 573.79 247.49 C 572.02 250.09 574.30 254.06 570.78 255.73 C 573.20 255.78 570.75 257.92 570.72 259.03 C 570.35 259.02 569.62 258.99 569.25 258.98 C 569.05 260.43 566.71 262.63 569.13 263.34 C 566.18 266.26 565.16 270.60 562.08 273.48 C 561.82 274.71 561.59 275.96 561.39 277.21 C 560.07 279.15 558.04 280.24 555.90 281.04 C 550.91 284.59 546.38 288.75 541.45 292.35 C 539.71 293.21 537.97 294.13 535.99 294.19 C 536.00 294.58 536.01 295.35 536.02 295.74 C 534.24 296.52 532.42 297.18 530.45 297.14 C 529.50 297.69 528.56 298.24 527.63 298.80 C 526.03 299.65 524.30 300.12 522.50 300.17 C 521.18 301.89 519.49 300.09 518.02 299.74 C 518.01 300.35 517.99 301.57 517.98 302.18 C 516.68 302.16 515.50 301.81 514.44 301.11 C 513.83 301.07 512.60 300.99 511.99 300.95 C 512.00 301.46 512.03 302.49 512.05 303.00 C 506.66 302.93 501.26 303.18 495.87 302.96 C 495.51 302.75 494.77 302.34 494.40 302.13 C 492.40 301.94 490.17 302.52 488.43 301.23 C 487.07 301.07 485.67 301.03 484.47 300.33 C 483.46 300.04 482.46 299.75 481.47 299.46 C 480.45 299.14 479.45 298.78 478.48 298.38 C 476.70 298.07 475.09 297.25 473.57 296.34 C 473.06 296.12 472.04 295.68 471.54 295.46 C 470.64 294.92 469.77 294.35 468.92 293.76 C 469.31 297.15 469.06 300.55 469.00 303.95 C 474.32 303.96 479.65 303.84 484.97 303.96 C 485.37 304.20 486.16 304.67 486.56 304.91 C 490.82 305.57 495.63 303.86 499.55 305.87 C 501.23 306.04 503.11 305.66 504.53 306.84 C 505.02 306.91 505.99 307.06 506.48 307.14 C 507.51 308.25 508.52 308.24 509.52 307.09 C 510.21 307.05 511.59 306.96 512.28 306.92 C 511.88 307.48 511.10 308.60 510.70 309.16 C 512.12 309.22 513.40 308.88 514.56 308.11 C 515.24 308.06 516.62 307.96 517.30 307.91 C 516.90 308.48 516.10 309.62 515.69 310.18 C 517.29 310.49 518.92 308.73 520.40 309.68 C 521.92 310.69 523.66 311.11 525.49 311.18 C 526.69 312.37 527.66 312.26 528.39 310.85 C 529.15 311.64 529.91 312.43 530.69 313.22 L 531.15 312.14 C 534.19 312.83 536.63 314.81 539.46 315.98 C 539.87 315.66 540.67 315.01 541.08 314.69 C 541.03 315.31 540.93 316.55 540.87 317.17 C 541.95 316.49 543.10 315.99 544.34 315.66 C 543.95 316.24 543.16 317.42 542.77 318.00 C 544.36 318.03 546.07 317.76 547.50 318.69 C 549.59 318.00 551.51 322.80 552.47 319.78 L 553.83 321.35 L 554.51 320.06 C 554.39 320.87 554.15 322.48 554.03 323.28 C 554.83 322.66 555.64 322.04 556.46 321.43 L 555.94 323.00 C 556.70 323.00 558.24 323.00 559.00 323.00 C 559.00 323.42 559.00 324.28 559.00 324.70 C 560.52 325.26 561.98 325.95 563.45 326.66 C 564.85 327.50 566.16 328.49 567.55 329.37 C 568.16 329.60 569.39 330.05 570.01 330.27 C 570.01 330.63 570.00 331.34 570.00 331.70 C 570.61 331.95 571.82 332.44 572.43 332.69 C 572.94 332.93 573.95 333.42 574.45 333.66 C 576.66 334.64 577.92 336.87 580.04 338.00 C 582.81 339.44 584.19 342.57 587.00 343.96 C 588.27 344.38 588.87 345.53 589.30 346.72 C 590.52 347.10 591.64 347.72 592.03 349.04 C 592.70 350.99 594.68 351.70 596.24 352.78 C 598.04 356.22 601.23 358.56 603.89 361.31 C 603.43 364.81 607.78 365.82 608.36 369.00 C 608.78 369.00 609.61 369.00 610.03 369.00 C 610.02 369.75 610.00 371.25 609.99 372.00 C 610.41 372.00 611.26 372.00 611.68 372.00 C 612.15 374.11 614.41 375.33 614.16 377.69 C 615.35 378.08 616.35 378.82 617.33 379.60 L 615.89 380.28 C 617.07 381.74 618.48 383.00 619.85 384.29 C 619.72 386.41 621.34 387.86 622.33 389.56 C 622.98 390.91 623.65 392.26 624.33 393.61 C 624.85 396.24 626.54 398.29 627.98 400.48 C 627.98 401.66 627.99 402.84 628.01 404.02 C 628.57 403.99 629.69 403.91 630.26 403.87 C 627.84 405.48 630.59 406.96 631.45 408.53 C 632.49 409.81 631.60 411.04 630.80 412.13 C 631.27 412.09 632.22 412.01 632.69 411.97 C 632.95 412.60 633.46 413.86 633.71 414.50 C 633.98 415.50 634.30 416.50 634.68 417.48 C 634.60 418.74 637.19 421.13 634.77 421.29 C 635.54 422.04 636.31 422.80 637.10 423.56 C 636.14 424.36 635.73 425.43 635.88 426.76 C 635.29 426.98 634.12 427.42 633.53 427.64 C 631.93 428.66 630.35 429.72 628.78 430.77 C 627.71 432.33 626.89 434.15 625.25 435.21 C 619.44 438.73 615.57 444.48 611.29 449.53 C 610.73 450.95 609.70 451.99 608.17 452.28 C 608.20 454.27 607.35 456.12 605.16 456.22 C 604.46 457.92 604.01 459.68 603.75 461.50 C 602.93 463.13 601.06 463.91 600.19 465.51 C 600.05 467.75 599.72 469.96 598.79 472.03 C 598.40 472.01 597.62 471.99 597.24 471.98 C 595.51 474.59 596.61 477.85 595.26 480.52 C 595.32 482.55 594.01 484.06 592.00 484.31 C 591.63 487.34 592.93 490.86 591.11 493.56 C 591.08 494.17 591.00 495.39 590.97 496.00 C 590.48 496.00 589.51 496.00 589.02 496.00 C 588.99 497.48 588.97 498.97 588.91 500.47 C 587.63 501.68 588.02 503.43 587.97 504.99 C 588.07 518.67 587.92 532.35 588.04 546.03 C 588.26 546.41 588.70 547.16 588.92 547.54 C 588.97 549.02 588.99 550.50 589.02 552.00 C 589.51 552.00 590.47 552.00 590.96 552.00 C 591.00 552.61 591.08 553.83 591.12 554.45 C 593.31 557.37 590.81 561.42 592.70 564.51 C 592.87 566.50 593.85 568.11 596.00 568.29 C 596.11 570.36 595.50 572.64 596.72 574.50 C 596.99 575.49 597.28 576.48 597.59 577.48 C 598.96 579.28 600.21 581.16 600.67 583.43 C 600.92 583.93 601.43 584.93 601.69 585.43 C 602.38 586.92 603.57 588.09 604.35 589.54 C 604.58 590.09 605.02 591.20 605.24 591.75 C 607.77 591.95 608.09 594.46 608.58 596.48 C 609.71 598.58 611.82 599.90 612.97 601.99 C 613.41 603.22 614.49 603.89 615.69 604.30 C 616.31 606.21 617.77 607.68 619.69 608.31 C 620.35 610.30 621.91 611.88 624.00 612.34 C 624.00 612.66 624.00 613.31 624.00 613.64 C 627.59 615.19 629.89 618.77 633.58 620.31 C 635.25 620.85 638.34 622.37 636.31 624.40 C 635.83 625.64 633.80 627.54 636.03 628.31 C 635.56 629.04 635.10 629.79 634.66 630.55 C 634.19 631.81 633.82 633.13 633.28 634.38 C 632.47 636.00 631.90 637.73 631.37 639.47 C 629.98 641.33 628.85 643.31 628.16 645.54 C 628.10 646.04 627.97 647.03 627.91 647.53 C 626.91 648.87 626.26 650.43 625.72 652.02 C 625.22 651.99 624.21 651.94 623.70 651.91 C 623.99 652.24 624.57 652.90 624.86 653.23 C 623.94 655.54 622.50 657.63 621.71 660.01 C 621.33 660.00 620.56 659.99 620.18 659.99 C 620.20 663.17 617.62 665.47 615.79 667.80 C 618.84 668.04 614.47 670.33 614.64 672.01 C 614.29 672.00 613.58 671.99 613.22 671.99 C 612.52 676.79 608.72 679.97 606.62 684.04 C 606.25 684.02 605.51 683.99 605.13 683.97 C 605.40 686.06 604.45 687.90 602.29 688.30 C 601.54 690.15 599.99 691.53 599.29 693.42 C 598.91 694.93 597.82 695.88 596.34 696.28 C 595.44 697.86 594.36 699.34 593.61 701.00 C 593.30 701.00 592.67 701.00 592.36 701.00 C 591.29 704.37 587.92 706.15 585.76 708.75 C 582.57 711.55 580.12 715.32 576.32 717.34 C 575.83 720.11 572.14 719.89 571.68 722.69 C 568.73 723.87 567.27 726.99 564.45 728.41 C 559.33 732.43 553.98 736.12 548.52 739.67 C 547.01 740.22 545.49 740.71 543.97 741.22 C 543.99 741.59 544.04 742.33 544.06 742.70 C 543.42 742.95 542.15 743.46 541.51 743.72 C 539.46 743.82 538.13 745.43 536.43 746.34 C 533.94 747.77 531.03 748.21 528.56 749.71 C 528.08 749.97 527.13 750.50 526.65 750.77 C 525.00 751.47 523.30 752.06 521.62 752.68 C 520.09 753.79 518.34 754.55 516.87 752.81 C 516.91 753.36 516.99 754.45 517.04 755.00 C 516.42 755.03 515.19 755.10 514.58 755.13 C 511.75 757.21 507.42 754.47 505.30 758.01 L 504.75 756.90 C 502.73 758.58 500.15 759.52 497.52 758.90 C 496.82 758.59 495.40 757.97 494.70 757.66 C 495.08 758.26 495.85 759.47 496.24 760.08 C 495.00 760.02 493.76 759.97 492.53 759.92 C 491.50 758.62 489.47 758.62 488.46 759.93 C 483.31 760.05 478.16 760.00 473.01 760.00 C 471.94 760.01 471.00 759.67 470.18 758.96 L 469.82 759.88 C 467.27 759.26 464.92 758.07 463.42 755.85 C 462.39 758.56 460.29 755.86 459.27 754.80 L 458.85 755.86 C 458.00 755.67 456.29 755.29 455.44 755.10 C 456.08 754.48 456.72 753.86 457.36 753.25 C 456.49 753.23 454.73 753.20 453.85 753.18 L 454.07 751.99 C 453.30 752.00 451.76 752.00 450.99 752.01 C 451.00 751.43 451.02 750.28 451.03 749.70 C 450.57 750.08 449.65 750.82 449.19 751.20 C 449.16 749.46 447.67 746.67 446.13 749.19 C 446.00 746.00 442.35 745.01 440.00 743.66 C 440.00 743.24 440.00 742.40 440.00 741.98 C 439.50 742.01 438.51 742.05 438.01 742.07 C 438.01 741.63 438.00 740.75 438.00 740.31 C 435.81 739.91 434.13 738.14 433.68 735.99 C 433.25 736.00 432.39 736.02 431.96 736.03 C 431.97 735.52 432.00 734.50 432.01 734.00 C 431.60 734.00 430.78 734.01 430.37 734.01 C 429.75 731.77 427.66 730.47 426.65 728.46 C 426.21 727.48 425.78 726.50 425.35 725.54 C 423.76 723.11 421.86 720.91 420.14 718.59 C 420.42 718.16 420.96 717.30 421.23 716.88 C 420.76 716.91 419.82 716.98 419.35 717.02 C 419.04 716.43 418.42 715.24 418.12 714.65 C 418.54 713.77 418.95 712.90 419.35 712.02 C 418.68 712.04 417.35 712.09 416.69 712.12 C 418.92 710.80 417.21 709.49 415.87 708.36 C 417.20 707.68 417.34 706.72 416.30 705.50 C 416.13 703.78 415.22 702.39 413.87 701.37 C 415.70 700.84 415.07 698.70 414.33 697.61 C 413.39 696.06 412.03 693.91 413.94 692.45 C 413.94 691.97 413.93 691.03 413.93 690.56 C 412.59 689.38 413.08 687.54 412.97 686.01 C 413.02 682.51 412.94 679.02 413.07 675.53 C 414.38 674.52 414.36 672.48 413.08 671.47 C 413.25 668.82 412.13 665.71 413.92 663.45 C 414.05 659.82 414.05 656.18 413.91 652.55 C 412.77 651.46 412.99 649.94 413.00 648.55 C 414.66 647.67 413.86 646.32 413.06 645.32 C 414.58 644.40 413.78 642.42 414.08 641.00 C 413.49 641.01 412.29 641.01 411.70 641.02 C 412.04 640.61 412.73 639.81 413.07 639.40 C 411.66 638.53 411.63 637.54 413.00 636.45 C 413.01 635.08 413.08 633.68 412.31 632.49 C 412.17 631.40 411.76 630.46 411.07 629.67 C 411.96 628.61 412.63 626.90 411.30 625.88 C 409.35 624.39 409.62 621.56 411.17 619.90 C 410.56 619.93 409.34 619.99 408.73 620.02 C 409.01 618.82 410.05 617.73 409.92 616.48 C 409.26 615.74 408.58 615.03 407.87 614.36 C 409.31 613.58 409.37 612.62 408.07 611.46 C 408.02 610.30 407.99 609.14 407.98 608.00 C 407.40 608.00 406.25 608.02 405.68 608.02 C 406.01 607.64 406.66 606.86 406.99 606.48 C 406.09 605.35 405.84 603.91 405.27 602.64 C 404.24 600.53 403.96 598.07 402.10 596.46 C 402.39 596.06 402.97 595.27 403.25 594.87 C 402.75 594.92 401.74 595.01 401.24 595.05 C 400.43 593.10 399.71 591.10 399.94 588.96 C 399.38 589.00 398.24 589.08 397.68 589.13 C 401.86 586.67 392.81 584.56 395.96 582.61 L 396.02 582.24 C 394.35 582.09 393.19 581.00 392.58 579.51 C 392.28 578.46 392.02 577.39 391.81 576.33 C 390.89 575.88 390.01 575.39 389.17 574.84 C 388.51 571.55 384.66 570.45 383.67 567.32 C 381.76 566.63 380.20 565.20 379.72 563.20 C 378.47 562.70 377.25 562.18 376.00 561.73 C 376.00 561.38 376.00 560.68 376.00 560.34 C 373.90 559.89 372.37 558.30 371.69 556.32 C 369.78 555.67 368.33 554.23 367.69 552.33 C 366.27 551.69 365.06 550.71 363.93 549.68 C 363.95 549.10 363.99 547.94 364.01 547.36 C 361.58 546.63 359.70 544.71 358.72 542.41 C 357.85 540.10 355.85 538.55 354.60 536.48 C 354.39 535.86 353.96 534.60 353.74 533.97 C 353.35 534.00 352.57 534.05 352.18 534.08 C 352.60 530.80 349.40 529.26 347.66 527.06 L 349.00 526.95 L 349.01 525.96 C 348.43 526.01 347.26 526.10 346.68 526.14 C 349.50 524.41 345.79 523.08 345.68 521.00 C 345.29 521.00 344.50 521.00 344.10 521.00 C 344.17 518.89 343.62 516.88 342.76 514.99 C 342.36 514.99 341.56 515.00 341.15 515.01 C 341.39 512.10 338.65 510.41 338.27 507.63 C 337.64 506.29 337.03 504.95 336.66 503.52 C 336.30 502.52 335.97 501.51 335.68 500.50 C 335.31 499.51 334.97 498.52 334.67 497.53 C 334.31 496.53 333.97 495.53 333.67 494.53 C 333.29 493.55 332.94 492.57 332.61 491.59 C 332.06 490.30 331.96 488.90 331.79 487.54 C 330.63 486.10 330.99 484.25 330.86 482.57 C 329.62 481.17 329.99 479.29 329.84 477.60 C 328.47 475.89 329.04 473.63 328.83 471.63 C 326.98 467.94 328.47 463.55 327.90 459.58 C 327.68 459.18 327.25 458.40 327.03 458.01 C 326.90 454.02 326.90 450.01 327.01 446.02 C 327.23 445.62 327.67 444.82 327.90 444.42 C 328.40 440.77 327.05 436.77 328.79 433.38 C 329.06 431.05 328.31 428.42 329.81 426.39 C 329.94 424.71 329.62 422.87 330.76 421.46 C 330.91 420.06 330.94 418.62 331.75 417.42 C 331.93 416.04 332.06 414.65 332.66 413.38 C 332.87 412.04 333.04 410.68 333.60 409.44 C 333.93 408.43 334.27 407.43 334.64 406.44 C 334.94 405.42 335.29 404.43 335.67 403.45 C 336.03 401.70 336.75 400.06 337.68 398.54 C 337.99 396.76 338.79 395.13 339.67 393.58 C 340.31 392.16 340.95 390.74 341.84 389.46 C 341.86 388.97 341.91 388.01 341.94 387.53 C 342.81 386.59 343.66 385.62 344.27 384.49 C 344.88 383.11 345.53 381.75 346.15 380.38 C 347.27 378.42 348.61 376.60 349.63 374.58 C 351.04 372.12 352.83 369.89 354.18 367.39 C 355.30 366.15 356.54 364.95 357.13 363.35 C 358.59 361.78 360.40 360.41 361.17 358.33 C 367.76 351.49 374.52 344.80 381.33 338.19 C 383.81 337.23 385.15 334.70 387.53 333.56 C 388.52 332.85 389.55 332.16 390.66 331.62 C 391.54 330.80 392.43 329.98 393.33 329.18 C 394.78 328.42 396.12 327.46 397.56 326.68 C 399.30 325.80 400.87 324.64 402.53 323.64 C 403.50 323.17 404.47 322.71 405.45 322.25 C 406.84 321.40 408.15 320.44 409.55 319.61 C 411.14 318.80 412.74 317.92 414.55 317.71 C 416.74 316.43 419.02 315.24 421.52 314.69 C 423.06 313.81 424.69 313.05 426.43 312.63 C 427.43 312.28 428.44 311.96 429.47 311.67 C 430.45 311.29 431.44 310.95 432.45 310.63 C 433.69 310.05 435.06 309.92 436.41 309.74 C 437.40 309.30 438.42 308.94 439.47 308.64 C 440.99 307.79 442.74 307.96 444.42 307.84 C 445.85 306.65 447.72 307.00 449.44 306.87 C 451.29 305.31 453.79 306.13 455.99 306.00 C 455.94 300.19 456.02 294.39 455.87 288.59 C 454.00 285.99 455.26 282.56 454.84 279.59 C 453.18 277.62 454.06 274.91 453.81 272.58 C 452.55 271.18 452.91 269.30 452.76 267.60 C 451.96 266.39 451.92 264.95 451.75 263.57 C 450.98 262.36 450.90 260.95 450.75 259.58 C 450.27 258.58 449.93 257.53 449.75 256.44 C 448.65 254.47 447.67 252.44 446.73 250.40 C 445.99 249.10 445.32 247.75 444.76 246.37 C 443.93 244.41 442.47 242.86 440.92 241.45 C 441.27 240.84 441.98 239.63 442.33 239.03 C 441.70 239.05 440.45 239.08 439.82 239.10 C 440.87 237.99 441.15 236.86 439.75 235.91 C 440.39 235.94 441.67 236.02 442.32 236.05 C 441.93 235.59 441.16 234.67 440.78 234.21 C 443.19 234.20 444.51 230.63 446.96 232.86 C 447.24 232.56 447.79 231.98 448.07 231.69 C 448.05 232.17 448.01 233.14 447.99 233.62 C 451.51 235.20 454.24 238.40 456.37 241.54 C 456.60 242.04 457.04 243.05 457.26 243.55 C 457.99 244.87 458.65 246.22 459.30 247.59 C 460.04 248.89 460.71 250.24 461.38 251.59 C 462.34 253.76 463.08 256.03 463.29 258.41 C 463.92 257.44 464.56 256.46 465.16 255.47 C 465.85 254.49 466.54 253.52 467.19 252.52 C 467.89 251.48 468.58 250.44 469.13 249.32 C 470.57 247.78 472.32 246.42 473.12 244.40 C 476.22 241.45 478.78 237.65 482.65 235.67 C 485.15 232.99 488.20 230.91 491.43 229.22 C 493.12 228.26 494.71 227.14 496.40 226.16 C 498.39 225.26 500.32 224.14 502.49 223.68 C 503.46 223.31 504.45 222.96 505.46 222.64 C 506.46 222.29 507.47 221.97 508.49 221.66 C 509.71 221.00 511.08 220.92 512.44 220.76 C 513.90 219.70 515.72 219.99 517.42 219.84 Z" />
</g>
</svg>
